<svg width="66" height="66" viewBox="0 0 66 66" fill="none" xmlns="http://www.w3.org/2000/svg">
<rect width="66" height="66" fill="url(#paint0_linear_247_172)"/>
<path d="M10.5 48L9.61417 51.1452L6.88583 49.9758L8.48031 52.7177L6 54.4113L8.90551 54.7339L8.48031 58L10.5 55.621L12.5197 58L12.0945 54.7339L15 54.4113L12.5197 52.7177L14.1496 49.9758L11.4213 51.1452L10.5 48Z" fill="#EBF0FF" stroke="white"/>
<path d="M59.5 24L59.0079 25.5726L57.4921 24.9879L58.378 26.3589L57 27.2056L58.6142 27.3669L58.378 29L59.5 27.8105L60.622 29L60.3858 27.3669L62 27.2056L60.622 26.3589L61.5276 24.9879L60.0118 25.5726L59.5 24Z" fill="#EBF0FF" stroke="white"/>
<path d="M48.5 52L48.0079 53.8871L46.4921 53.1855L47.378 54.8306L46 55.8468L47.6142 56.0403L47.378 58L48.5 56.5726L49.622 58L49.3858 56.0403L51 55.8468L49.622 54.8306L50.5276 53.1855L49.0118 53.8871L48.5 52Z" fill="#EBF0FF" stroke="white"/>
<path d="M38.5 36L38.0079 37.5726L36.4921 36.9879L37.378 38.3589L36 39.2056L37.6142 39.3669L37.378 41L38.5 39.8105L39.622 41L39.3858 39.3669L41 39.2056L39.622 38.3589L40.5276 36.9879L39.0118 37.5726L38.5 36Z" fill="#EBF0FF" stroke="white"/>
<path d="M48.5 5L48.0079 6.57258L46.4921 5.9879L47.378 7.35887L46 8.20565L47.6142 8.36694L47.378 10L48.5 8.81048L49.622 10L49.3858 8.36694L51 8.20565L49.622 7.35887L50.5276 5.9879L49.0118 6.57258L48.5 5Z" fill="#EBF0FF" stroke="white"/>
<path d="M51 32L51.449 33.7275H52.9021L51.7265 34.7951L52.1756 36.5225L51 35.4549L49.8244 36.5225L50.2735 34.7951L49.0979 33.7275H50.551L51 32Z" fill="#EBF0FF"/>
<rect width="36" height="30" fill="url(#paint1_linear_247_172)"/>
<path d="M15.866 11.6661V0H20.134V11.6661H36V18.19H20.134V30H15.866V18.19H0V11.6661H15.866Z" fill="url(#paint2_linear_247_172)"/>
<path d="M23.9381 9.48113H21.433L31.5464 0H34.3299L23.9381 9.48113Z" fill="url(#paint3_linear_247_172)"/>
<path d="M26.9072 20.5189H24.0309L34.3299 30H36V28.7264L26.9072 20.5189Z" fill="url(#paint4_linear_247_172)"/>
<path d="M11.8763 20.3774H14.4742V20.8019L4.54639 30H1.57732L11.8763 20.3774Z" fill="url(#paint5_linear_247_172)"/>
<path d="M9.18557 9.62264H12.0619L1.85567 0H0V1.13208L9.18557 9.62264Z" fill="url(#paint6_linear_247_172)"/>
<path d="M14.3814 7.85281V0H5.84536L14.3814 7.85281Z" fill="url(#paint7_linear_247_172)"/>
<path d="M0 9.62264V2.26415L7.8866 9.62264H0Z" fill="url(#paint8_linear_247_172)"/>
<path d="M0 20.4204V27.7358L7.84799 20.4204H0Z" fill="url(#paint9_linear_247_172)"/>
<path d="M14.3814 30H5.75258L14.3814 22.0755V30Z" fill="url(#paint10_linear_247_172)"/>
<path d="M21.6186 30V22.0755L30.2474 30H21.6186Z" fill="url(#paint11_linear_247_172)"/>
<path d="M21.6186 0V7.78302L30.2474 0H21.6186Z" fill="url(#paint12_linear_247_172)"/>
<path d="M36 9.62264V2.26415L28.1134 9.62264H36Z" fill="url(#paint13_linear_247_172)"/>
<path d="M28.1617 20.3774H36V27.7358L28.1617 20.3774Z" fill="url(#paint14_linear_247_172)"/>
<defs>
<linearGradient id="paint0_linear_247_172" x1="0" y1="33" x2="66" y2="33" gradientUnits="userSpaceOnUse">
<stop stop-color="#012169"/>
<stop offset="0.53" stop-color="#012169"/>
</linearGradient>
<linearGradient id="paint1_linear_247_172" x1="0" y1="15" x2="36" y2="15" gradientUnits="userSpaceOnUse">
<stop stop-color="white"/>
<stop offset="1" stop-color="#EBF0FF"/>
</linearGradient>
<linearGradient id="paint2_linear_247_172" x1="0" y1="15" x2="36" y2="15" gradientUnits="userSpaceOnUse">
<stop stop-color="#C8102E"/>
<stop offset="0.565" stop-color="#C8102E"/>
</linearGradient>
<linearGradient id="paint3_linear_247_172" x1="0" y1="15" x2="36" y2="15" gradientUnits="userSpaceOnUse">
<stop stop-color="#C8102E"/>
<stop offset="0.565" stop-color="#C8102E"/>
</linearGradient>
<linearGradient id="paint4_linear_247_172" x1="0" y1="15" x2="36" y2="15" gradientUnits="userSpaceOnUse">
<stop stop-color="#C8102E"/>
<stop offset="0.565" stop-color="#C8102E"/>
</linearGradient>
<linearGradient id="paint5_linear_247_172" x1="0" y1="15" x2="36" y2="15" gradientUnits="userSpaceOnUse">
<stop stop-color="#C8102E"/>
<stop offset="0.565" stop-color="#C8102E"/>
</linearGradient>
<linearGradient id="paint6_linear_247_172" x1="0" y1="15" x2="36" y2="15" gradientUnits="userSpaceOnUse">
<stop stop-color="#C8102E"/>
<stop offset="0.565" stop-color="#C8102E"/>
</linearGradient>
<linearGradient id="paint7_linear_247_172" x1="0" y1="15" x2="36" y2="15" gradientUnits="userSpaceOnUse">
<stop stop-color="#012169"/>
<stop offset="0.524" stop-color="#012169"/>
</linearGradient>
<linearGradient id="paint8_linear_247_172" x1="0" y1="15" x2="36" y2="15" gradientUnits="userSpaceOnUse">
<stop stop-color="#012169"/>
<stop offset="0.524" stop-color="#012169"/>
</linearGradient>
<linearGradient id="paint9_linear_247_172" x1="0" y1="15" x2="36" y2="15" gradientUnits="userSpaceOnUse">
<stop stop-color="#012169"/>
<stop offset="0.524" stop-color="#012169"/>
</linearGradient>
<linearGradient id="paint10_linear_247_172" x1="0" y1="15" x2="36" y2="15" gradientUnits="userSpaceOnUse">
<stop stop-color="#012169"/>
<stop offset="0.524" stop-color="#012169"/>
</linearGradient>
<linearGradient id="paint11_linear_247_172" x1="0" y1="15" x2="36" y2="15" gradientUnits="userSpaceOnUse">
<stop stop-color="#012169"/>
<stop offset="0.524" stop-color="#012169"/>
</linearGradient>
<linearGradient id="paint12_linear_247_172" x1="0" y1="15" x2="36" y2="15" gradientUnits="userSpaceOnUse">
<stop stop-color="#012169"/>
<stop offset="0.524" stop-color="#012169"/>
</linearGradient>
<linearGradient id="paint13_linear_247_172" x1="0" y1="15" x2="36" y2="15" gradientUnits="userSpaceOnUse">
<stop stop-color="#012169"/>
<stop offset="0.524" stop-color="#012169"/>
</linearGradient>
<linearGradient id="paint14_linear_247_172" x1="0" y1="15" x2="36" y2="15" gradientUnits="userSpaceOnUse">
<stop stop-color="#012169"/>
<stop offset="0.524" stop-color="#012169"/>
</linearGradient>
</defs>
</svg>
