<svg width="66" height="66" viewBox="0 0 66 66" fill="none" xmlns="http://www.w3.org/2000/svg">
<g clip-path="url(#clip0_247_184)">
<rect width="66" height="66" fill="url(#paint0_linear_247_184)"/>
<path d="M18 4L22.0413 16.4377H35.119L24.5389 24.1246L28.5801 36.5623L18 28.8754L7.41987 36.5623L11.4611 24.1246L0.880983 16.4377H13.9587L18 4Z" fill="#E8E13A"/>
<path d="M46.3847 1.17224L46.3566 4.92854L49.9204 6.11599L46.3393 7.25006L46.3112 11.0064L44.126 7.95095L40.5449 9.08502L42.7755 6.0626L40.5903 3.00719L44.1541 4.19465L46.3847 1.17224Z" fill="#E8E13A"/>
<path d="M43.7996 42.017L43.7715 45.7733L47.3353 46.9607L43.7542 48.0948L43.7261 51.8511L41.5409 48.7957L37.9598 49.9297L40.1904 46.9073L38.0052 43.8519L41.569 45.0394L43.7996 42.017Z" fill="#E8E13A"/>
<path d="M57.3411 30.343L58.5307 33.9061L62.287 33.8757L59.2659 36.1081L60.4556 39.6712L57.3988 37.4879L54.3778 39.7203L55.5097 36.1385L52.4529 33.9552L56.2092 33.9248L57.3411 30.343Z" fill="#E8E13A"/>
<path d="M62.5358 13.9756L60.6615 17.2309L63.1784 20.0195L59.5031 19.2429L57.6288 22.4983L57.2317 18.7629L53.5565 17.9863L56.9863 16.4543L56.5892 12.719L59.106 15.5075L62.5358 13.9756Z" fill="#E8E13A"/>
</g>
<defs>
<linearGradient id="paint0_linear_247_184" x1="3.23578e-07" y1="25.8343" x2="70.157" y2="26.1067" gradientUnits="userSpaceOnUse">
<stop stop-color="#DD0009"/>
<stop offset="0.409" stop-color="#DD0009"/>
</linearGradient>
<clipPath id="clip0_247_184">
<rect width="66" height="66" fill="white"/>
</clipPath>
</defs>
</svg>
