<svg width="1920" height="350" viewBox="0 0 1920 350" fill="none" xmlns="http://www.w3.org/2000/svg">
<rect width="1920" height="350" fill="white"/>
<mask id="mask0_140_207" style="mask-type:alpha" maskUnits="userSpaceOnUse" x="1048" y="0" width="872" height="350">
<path d="M1228.59 128.089H1180.58C1179.94 119.55 1178.63 111.843 1176.65 104.967C1174.66 98.0909 1172.04 92.2132 1168.78 87.3337C1165.51 82.4541 1161.64 78.7389 1157.16 76.1882C1152.74 73.5266 1147.85 72.1958 1142.47 72.1958C1132.93 72.1958 1124.71 76.2437 1117.8 84.3394C1110.95 92.4351 1105.67 104.135 1101.96 119.439C1098.31 134.743 1096.48 153.264 1096.48 175C1096.48 197.624 1098.34 216.587 1102.05 231.892C1105.83 247.085 1111.11 258.563 1117.89 266.326C1124.74 273.978 1132.84 277.804 1142.18 277.804C1147.43 277.804 1152.2 276.64 1156.49 274.311C1160.84 271.982 1164.65 268.599 1167.91 264.164C1171.24 259.617 1173.96 254.127 1176.07 247.695C1178.25 241.152 1179.75 233.777 1180.58 225.57L1228.59 226.069C1227.76 241.152 1225.23 256.012 1221 270.651C1216.84 285.29 1211.11 298.653 1203.82 310.741C1196.52 322.719 1187.62 332.256 1177.13 339.354C1166.7 346.451 1154.73 350 1141.22 350C1123.43 350 1107.49 343.235 1093.41 329.705C1079.39 316.065 1068.32 296.214 1060.19 270.152C1052.06 244.091 1048 212.373 1048 175C1048 137.516 1052.13 105.743 1060.38 79.6816C1068.64 53.6201 1079.81 33.8245 1093.89 20.2947C1107.97 6.76489 1123.75 0 1141.22 0C1153.13 0 1164.14 2.8834 1174.25 8.6502C1184.36 14.3061 1193.26 22.6236 1200.94 33.6027C1208.62 44.4709 1214.86 57.8343 1219.66 73.693C1224.46 89.5517 1227.44 107.684 1228.59 128.089Z" fill="black"/>
<path d="M1255.78 345.342V4.6578H1303.3V141.397H1380.78V4.6578H1428.21V345.342H1380.78V208.436H1303.3V345.342H1255.78Z" fill="black"/>
<path d="M1505.54 4.6578V345.342H1458.02V4.6578H1505.54Z" fill="black"/>
<path d="M1702.71 4.6578V345.342H1662.39L1584.15 148.717H1582.9V345.342H1535.38V4.6578H1576.27L1653.65 200.951H1655.29V4.6578H1702.71Z" fill="black"/>
<path d="M1775.13 345.342H1724.05L1790.39 4.6578H1853.66L1920 345.342H1868.92L1822.75 90.4943H1821.21L1775.13 345.342ZM1768.31 211.264H1875.07V273.812H1768.31V211.264Z" fill="black"/>
</mask>
<g mask="url(#mask0_140_207)">
<g clip-path="url(#clip0_140_207)">
<rect width="872" height="350" transform="translate(1048)" fill="url(#paint0_linear_140_207)"/>
</g>
</g>
<path d="M1533 18L1548.72 66.3688L1599.57 66.3688L1558.43 96.2624L1574.14 144.631L1533 114.738L1491.86 144.631L1507.57 96.2624L1466.43 66.3688L1517.28 66.3688L1533 18Z" fill="url(#paint1_linear_140_207)"/>
<path d="M1643.62 6.3223L1643.51 20.8527L1657.3 25.4462L1643.44 29.8331L1643.33 44.3635L1634.88 32.5443L1621.03 36.9312L1629.66 25.2396L1621.2 13.4204L1634.99 18.0139L1643.62 6.3223Z" fill="#E8E13A"/>
<path d="M1633.62 164.322L1633.51 178.853L1647.3 183.446L1633.44 187.833L1633.33 202.363L1624.88 190.544L1611.03 194.931L1619.66 183.24L1611.2 171.42L1624.99 176.014L1633.62 164.322Z" fill="#E8E13A"/>
<path d="M1686 119.162L1690.6 132.945L1705.13 132.827L1693.45 141.463L1698.05 155.246L1686.22 146.8L1674.54 155.436L1678.91 141.58L1667.09 133.135L1681.62 133.017L1686 119.162Z" fill="#E8E13A"/>
<path d="M1706.09 55.8469L1698.84 68.4397L1708.58 79.2266L1694.36 76.2224L1687.11 88.8152L1685.58 74.3657L1671.36 71.3616L1684.63 65.4355L1683.09 50.9861L1692.83 61.773L1706.09 55.8469Z" fill="#E8E13A"/>
<defs>
<linearGradient id="paint0_linear_140_207" x1="-66.3571" y1="138.5" x2="926.84" y2="146.349" gradientUnits="userSpaceOnUse">
<stop offset="0.329" stop-color="#EAF0FF"/>
<stop offset="1" stop-color="#DD0009"/>
</linearGradient>
<linearGradient id="paint1_linear_140_207" x1="1586" y1="75" x2="1477.5" y2="70" gradientUnits="userSpaceOnUse">
<stop offset="0.219" stop-color="#E8E13A"/>
<stop offset="1" stop-color="white"/>
</linearGradient>
<clipPath id="clip0_140_207">
<rect width="872" height="350" fill="white" transform="translate(1048)"/>
</clipPath>
</defs>
</svg>
