<svg width="1920" height="350" viewBox="0 0 1920 350" fill="none" xmlns="http://www.w3.org/2000/svg">
<rect width="1920" height="350" fill="white"/>
<mask id="mask0_140_251" style="mask-type:alpha" maskUnits="userSpaceOnUse" x="1059" y="0" width="861" height="350">
<path d="M1059 345.342V4.6578H1121.34C1132.64 4.6578 1142.39 9.64829 1150.59 19.6293C1158.85 29.4994 1165.21 43.3064 1169.68 61.0504C1174.15 78.6835 1176.38 99.1999 1176.38 122.6C1176.38 146.111 1174.1 166.683 1169.53 184.316C1165.01 201.838 1158.55 215.423 1150.15 225.071C1141.75 234.72 1131.78 239.544 1120.23 239.544H1081.77V174.667H1113.45C1118.96 174.667 1123.55 172.505 1127.23 168.18C1130.97 163.855 1133.79 157.811 1135.71 150.048C1137.62 142.174 1138.58 133.024 1138.58 122.6C1138.58 112.064 1137.62 102.971 1135.71 95.3184C1133.79 87.5555 1130.97 81.5669 1127.23 77.3527C1123.5 73.1385 1118.91 71.0314 1113.45 71.0314H1095.48V345.342H1059Z" fill="black"/>
<path d="M1336.8 175C1336.8 212.484 1333.61 244.257 1327.22 270.318C1320.84 296.38 1312.19 316.176 1301.28 329.705C1290.43 343.235 1278.24 350 1264.74 350C1251.18 350 1238.97 343.18 1228.11 329.539C1217.26 315.898 1208.63 296.103 1202.25 270.152C1195.91 244.091 1192.74 212.373 1192.74 175C1192.74 137.516 1195.91 105.743 1202.25 79.6816C1208.63 53.6201 1217.26 33.8245 1228.11 20.2947C1238.97 6.76489 1251.18 0 1264.74 0C1278.24 0 1290.43 6.76489 1301.28 20.2947C1312.19 33.8245 1320.84 53.6201 1327.22 79.6816C1333.61 105.743 1336.8 137.516 1336.8 175ZM1299.52 175C1299.52 152.82 1298.12 134.078 1295.32 118.774C1292.56 103.47 1288.59 91.8805 1283.38 84.0066C1278.22 76.1328 1272.01 72.1958 1264.74 72.1958C1257.51 72.1958 1251.3 76.1328 1246.09 84.0066C1240.88 91.8805 1236.88 103.47 1234.08 118.774C1231.33 134.078 1229.95 152.82 1229.95 175C1229.95 197.18 1231.33 215.922 1234.08 231.226C1236.88 246.53 1240.88 258.119 1246.09 265.993C1251.3 273.867 1257.51 277.804 1264.74 277.804C1272.01 277.804 1278.22 273.867 1283.38 265.993C1288.59 258.119 1292.56 246.53 1295.32 231.226C1298.12 215.922 1299.52 197.18 1299.52 175Z" fill="black"/>
<path d="M1358.1 345.342V4.6578H1394.57V278.47H1457.35V345.342H1358.1Z" fill="black"/>
<path d="M1510.91 345.342H1471.7L1522.62 4.6578H1571.18L1622.1 345.342H1582.9L1547.46 90.4943H1546.28L1510.91 345.342ZM1505.67 211.264H1587.61V273.812H1505.67V211.264Z" fill="black"/>
<path d="M1766.79 4.6578V345.342H1735.84L1675.78 148.717H1674.82V345.342H1638.35V4.6578H1669.74L1729.13 200.951H1730.38V4.6578H1766.79Z" fill="black"/>
<path d="M1845.5 345.342H1789.72V4.6578H1845.43C1860.8 4.6578 1874.04 11.4781 1885.15 25.1188C1896.3 38.6486 1904.89 58.167 1910.94 83.674C1916.98 109.07 1920 139.457 1920 174.834C1920 210.322 1916.98 240.819 1910.94 266.326C1904.94 291.833 1896.37 311.407 1885.22 325.048C1874.07 338.577 1860.83 345.342 1845.5 345.342ZM1826.2 275.143H1844.1C1852.55 275.143 1859.7 271.926 1865.55 265.494C1871.44 258.951 1875.89 248.36 1878.88 233.721C1881.93 218.972 1883.45 199.343 1883.45 174.834C1883.45 150.325 1881.93 130.806 1878.88 116.279C1875.84 101.64 1871.34 91.1042 1865.4 84.6721C1859.5 78.129 1852.23 74.8574 1843.59 74.8574H1826.2V275.143Z" fill="black"/>
</mask>
<g mask="url(#mask0_140_251)">
<rect width="1190" height="350" transform="translate(730)" fill="white"/>
<rect x="900" y="176" width="1020" height="174" fill="url(#paint0_linear_140_251)"/>
<rect x="900" width="1020" height="176" fill="url(#paint1_linear_140_251)"/>
</g>
<defs>
<linearGradient id="paint0_linear_140_251" x1="829" y1="263" x2="2155" y2="263" gradientUnits="userSpaceOnUse">
<stop stop-color="white"/>
<stop offset="0.40442" stop-color="#F4ACAC"/>
<stop offset="1" stop-color="#DC0000"/>
</linearGradient>
<linearGradient id="paint1_linear_140_251" x1="900" y1="88" x2="1920" y2="88" gradientUnits="userSpaceOnUse">
<stop stop-color="white"/>
<stop offset="0.0001" stop-color="#F4F7FF"/>
<stop offset="0.244" stop-color="#EAF0FF"/>
</linearGradient>
</defs>
</svg>
