<svg width="60" height="55" viewBox="0 0 60 55" fill="none" xmlns="http://www.w3.org/2000/svg">
<path d="M34.7329 38.8677C39.4006 35.1386 42.2841 31.7944 44.0868 28.9352C46.1775 25.6193 46.7883 22.9964 47.0683 21.2648C47.2808 19.9498 47.2213 18.3703 47.0529 16.9949C46.8864 15.635 46.5965 14.3372 46.2769 13.6015C43.1937 6.50465 34.9993 3.27761 27.5319 4.13653C19.986 5.00448 12.8654 10.0719 12.0039 19.8416C11.9792 20.121 12.0731 20.3979 12.2625 20.6047C12.4519 20.8116 12.7195 20.9294 13 20.9294H24.027C24.5793 20.9294 25.027 20.4817 25.027 19.9294C25.027 17.0743 27.2962 15.4741 29.7909 15.4227C31.0249 15.3972 32.2117 15.7683 33.0732 16.4966C33.9062 17.2009 34.5052 18.296 34.5134 19.8959C34.4628 20.5695 34.1729 21.4079 33.6201 22.3979C33.0646 23.3927 32.2793 24.4776 31.3236 25.6146C29.412 27.8889 26.8861 30.2927 24.3475 32.4986C21.8136 34.7004 19.2907 36.6848 17.3993 38.12C16.4543 38.8371 15.6683 39.4159 15.1194 39.815C14.8449 40.0146 14.6298 40.1691 14.4838 40.2734C14.4107 40.3256 14.355 40.3652 14.3177 40.3915L14.2759 40.4212L14.2656 40.4284L14.2632 40.4301L14.2627 40.4304L14.8378 41.2485L14.2627 40.4305C13.9963 40.6177 13.8378 40.9229 13.8378 41.2485V49.7748C13.8378 50.3244 14.2813 50.7709 14.8308 50.7748L46.993 51C47.2594 51.0018 47.5156 50.8973 47.7046 50.7096C47.8937 50.5218 48 50.2664 48 50V40.0526C48 39.5062 47.5614 39.061 47.0151 39.0527L34.7329 38.8677Z" stroke="#203468" stroke-width="2" stroke-linejoin="round"/>
</svg>
