<svg width="66" height="66" viewBox="0 0 66 66" fill="none" xmlns="http://www.w3.org/2000/svg">
<g clip-path="url(#clip0_247_244)">
<rect width="66" height="66" fill="white"/>
<path d="M29.0876 25.6654V0H36.9124V25.6654H66V40.0181H36.9124V66H29.0876V40.0181H0V25.6654H29.0876Z" fill="url(#paint0_linear_247_244)"/>
<path d="M43.8866 20.8585H39.2938L57.835 0H62.9381L43.8866 20.8585Z" fill="url(#paint1_linear_247_244)"/>
<path d="M49.3299 45.1415H44.0567L62.9381 66H66V63.1981L49.3299 45.1415Z" fill="url(#paint2_linear_247_244)"/>
<path d="M21.7732 44.8302H26.5361V45.7641L8.33505 66H2.89175L21.7732 44.8302Z" fill="url(#paint3_linear_247_244)"/>
<path d="M16.8402 21.1698H22.1134L3.40206 0H0V2.49057L16.8402 21.1698Z" fill="url(#paint4_linear_247_244)"/>
<path d="M26.366 17.2762V0H10.7165L26.366 17.2762Z" fill="url(#paint5_linear_247_244)"/>
<path d="M0 21.1698V4.98113L14.4588 21.1698H0Z" fill="url(#paint6_linear_247_244)"/>
<path d="M0 44.9249V61.0189L14.388 44.9249H0Z" fill="url(#paint7_linear_247_244)"/>
<path d="M26.366 66H10.5464L26.366 48.566V66Z" fill="url(#paint8_linear_247_244)"/>
<path d="M39.634 66V48.566L55.4536 66H39.634Z" fill="url(#paint9_linear_247_244)"/>
<path d="M39.634 0V17.1226L55.4536 0H39.634Z" fill="url(#paint10_linear_247_244)"/>
<path d="M66 21.1698V4.98113L51.5412 21.1698H66Z" fill="url(#paint11_linear_247_244)"/>
<path d="M51.6299 44.8302H66V61.0189L51.6299 44.8302Z" fill="url(#paint12_linear_247_244)"/>
</g>
<defs>
<linearGradient id="paint0_linear_247_244" x1="0" y1="33" x2="66" y2="33" gradientUnits="userSpaceOnUse">
<stop stop-color="#C8102E"/>
<stop offset="0.564" stop-color="#C8102E"/>
</linearGradient>
<linearGradient id="paint1_linear_247_244" x1="0" y1="33" x2="66" y2="33" gradientUnits="userSpaceOnUse">
<stop stop-color="#C8102E"/>
<stop offset="0.564" stop-color="#C8102E"/>
</linearGradient>
<linearGradient id="paint2_linear_247_244" x1="0" y1="33" x2="66" y2="33" gradientUnits="userSpaceOnUse">
<stop stop-color="#C8102E"/>
<stop offset="0.564" stop-color="#C8102E"/>
</linearGradient>
<linearGradient id="paint3_linear_247_244" x1="0" y1="33" x2="66" y2="33" gradientUnits="userSpaceOnUse">
<stop stop-color="#C8102E"/>
<stop offset="0.564" stop-color="#C8102E"/>
</linearGradient>
<linearGradient id="paint4_linear_247_244" x1="0" y1="33" x2="66" y2="33" gradientUnits="userSpaceOnUse">
<stop stop-color="#C8102E"/>
<stop offset="0.564" stop-color="#C8102E"/>
</linearGradient>
<linearGradient id="paint5_linear_247_244" x1="0" y1="33" x2="66" y2="33" gradientUnits="userSpaceOnUse">
<stop stop-color="#11265B"/>
<stop offset="0.599" stop-color="#11265B"/>
</linearGradient>
<linearGradient id="paint6_linear_247_244" x1="0" y1="33" x2="66" y2="33" gradientUnits="userSpaceOnUse">
<stop stop-color="#11265B"/>
<stop offset="0.599" stop-color="#11265B"/>
</linearGradient>
<linearGradient id="paint7_linear_247_244" x1="0" y1="33" x2="66" y2="33" gradientUnits="userSpaceOnUse">
<stop stop-color="#11265B"/>
<stop offset="0.599" stop-color="#11265B"/>
</linearGradient>
<linearGradient id="paint8_linear_247_244" x1="0" y1="33" x2="66" y2="33" gradientUnits="userSpaceOnUse">
<stop stop-color="#11265B"/>
<stop offset="0.599" stop-color="#11265B"/>
</linearGradient>
<linearGradient id="paint9_linear_247_244" x1="0" y1="33" x2="66" y2="33" gradientUnits="userSpaceOnUse">
<stop stop-color="#11265B"/>
<stop offset="0.599" stop-color="#11265B"/>
</linearGradient>
<linearGradient id="paint10_linear_247_244" x1="0" y1="33" x2="66" y2="33" gradientUnits="userSpaceOnUse">
<stop stop-color="#11265B"/>
<stop offset="0.599" stop-color="#11265B"/>
</linearGradient>
<linearGradient id="paint11_linear_247_244" x1="0" y1="33" x2="66" y2="33" gradientUnits="userSpaceOnUse">
<stop stop-color="#11265B"/>
<stop offset="0.599" stop-color="#11265B"/>
</linearGradient>
<linearGradient id="paint12_linear_247_244" x1="0" y1="33" x2="66" y2="33" gradientUnits="userSpaceOnUse">
<stop stop-color="#11265B"/>
<stop offset="0.599" stop-color="#11265B"/>
</linearGradient>
<clipPath id="clip0_247_244">
<rect width="66" height="66" fill="white"/>
</clipPath>
</defs>
</svg>
