<svg width="66" height="66" viewBox="0 0 66 66" fill="none" xmlns="http://www.w3.org/2000/svg">
<g clip-path="url(#clip0_247_29)">
<rect width="66" height="66" fill="#DC0505"/>
<rect x="-129" y="56" width="228" height="10" fill="#DC0A0A"/>
<rect x="-129" y="47" width="228" height="9" fill="url(#paint0_linear_247_29)"/>
<rect x="-129" y="37" width="228" height="10" fill="#DC0A0A"/>
<rect x="-129" y="29" width="228" height="8" fill="url(#paint1_linear_247_29)"/>
<rect x="-129" y="19" width="228" height="10" fill="#DC0A0A"/>
<rect x="-129" y="10" width="228" height="9" fill="url(#paint2_linear_247_29)"/>
<rect x="-129" width="228" height="10" fill="#DC0A0A"/>
<rect width="40" height="37" fill="url(#paint3_linear_247_29)"/>
<path d="M3.5 1L4.2858 3.41844H6.8287L4.77145 4.91312L5.55725 7.33156L3.5 5.83688L1.44275 7.33156L2.22855 4.91312L0.171302 3.41844H2.7142L3.5 1Z" fill="#EBF0FF"/>
<path d="M3.5 10L4.2858 12.4184H6.8287L4.77145 13.9131L5.55725 16.3316L3.5 14.8369L1.44275 16.3316L2.22855 13.9131L0.171302 12.4184H2.7142L3.5 10Z" fill="#EBF0FF"/>
<path d="M3.5 19L4.2858 21.4184H6.8287L4.77145 22.9131L5.55725 25.3316L3.5 23.8369L1.44275 25.3316L2.22855 22.9131L0.171302 21.4184H2.7142L3.5 19Z" fill="#EBF0FF"/>
<path d="M3.5 29L4.2858 31.4184H6.8287L4.77145 32.9131L5.55725 35.3316L3.5 33.8369L1.44275 35.3316L2.22855 32.9131L0.171302 31.4184H2.7142L3.5 29Z" fill="#EBF0FF"/>
<path d="M11.5 1L12.2858 3.41844H14.8287L12.7714 4.91312L13.5572 7.33156L11.5 5.83688L9.44275 7.33156L10.2286 4.91312L8.1713 3.41844H10.7142L11.5 1Z" fill="#EBF0FF"/>
<path d="M11.5 10L12.2858 12.4184H14.8287L12.7714 13.9131L13.5572 16.3316L11.5 14.8369L9.44275 16.3316L10.2286 13.9131L8.1713 12.4184H10.7142L11.5 10Z" fill="#EBF0FF"/>
<path d="M11.5 19L12.2858 21.4184H14.8287L12.7714 22.9131L13.5572 25.3316L11.5 23.8369L9.44275 25.3316L10.2286 22.9131L8.1713 21.4184H10.7142L11.5 19Z" fill="#EBF0FF"/>
<path d="M11.5 29L12.2858 31.4184H14.8287L12.7714 32.9131L13.5572 35.3316L11.5 33.8369L9.44275 35.3316L10.2286 32.9131L8.1713 31.4184H10.7142L11.5 29Z" fill="#EBF0FF"/>
<path d="M19.5 1L20.2858 3.41844H22.8287L20.7714 4.91312L21.5572 7.33156L19.5 5.83688L17.4428 7.33156L18.2286 4.91312L16.1713 3.41844H18.7142L19.5 1Z" fill="#EBF0FF"/>
<path d="M19.5 10L20.2858 12.4184H22.8287L20.7714 13.9131L21.5572 16.3316L19.5 14.8369L17.4428 16.3316L18.2286 13.9131L16.1713 12.4184H18.7142L19.5 10Z" fill="#EBF0FF"/>
<path d="M19.5 19L20.2858 21.4184H22.8287L20.7714 22.9131L21.5572 25.3316L19.5 23.8369L17.4428 25.3316L18.2286 22.9131L16.1713 21.4184H18.7142L19.5 19Z" fill="#EBF0FF"/>
<path d="M19.5 29L20.2858 31.4184H22.8287L20.7714 32.9131L21.5572 35.3316L19.5 33.8369L17.4428 35.3316L18.2286 32.9131L16.1713 31.4184H18.7142L19.5 29Z" fill="#EBF0FF"/>
<path d="M27.5 1L28.2858 3.41844H30.8287L28.7714 4.91312L29.5572 7.33156L27.5 5.83688L25.4428 7.33156L26.2286 4.91312L24.1713 3.41844H26.7142L27.5 1Z" fill="#EBF0FF"/>
<path d="M27.5 10L28.2858 12.4184H30.8287L28.7714 13.9131L29.5572 16.3316L27.5 14.8369L25.4428 16.3316L26.2286 13.9131L24.1713 12.4184H26.7142L27.5 10Z" fill="#EBF0FF"/>
<path d="M27.5 19L28.2858 21.4184H30.8287L28.7714 22.9131L29.5572 25.3316L27.5 23.8369L25.4428 25.3316L26.2286 22.9131L24.1713 21.4184H26.7142L27.5 19Z" fill="#EBF0FF"/>
<path d="M27.5 29L28.2858 31.4184H30.8287L28.7714 32.9131L29.5572 35.3316L27.5 33.8369L25.4428 35.3316L26.2286 32.9131L24.1713 31.4184H26.7142L27.5 29Z" fill="#EBF0FF"/>
<path d="M35.5 1L36.2858 3.41844H38.8287L36.7714 4.91312L37.5572 7.33156L35.5 5.83688L33.4428 7.33156L34.2286 4.91312L32.1713 3.41844H34.7142L35.5 1Z" fill="#EBF0FF"/>
<path d="M35.5 10L36.2858 12.4184H38.8287L36.7714 13.9131L37.5572 16.3316L35.5 14.8369L33.4428 16.3316L34.2286 13.9131L32.1713 12.4184H34.7142L35.5 10Z" fill="#EBF0FF"/>
<path d="M35.5 19L36.2858 21.4184H38.8287L36.7714 22.9131L37.5572 25.3316L35.5 23.8369L33.4428 25.3316L34.2286 22.9131L32.1713 21.4184H34.7142L35.5 19Z" fill="#EBF0FF"/>
<path d="M35.5 29L36.2858 31.4184H38.8287L36.7714 32.9131L37.5572 35.3316L35.5 33.8369L33.4428 35.3316L34.2286 32.9131L32.1713 31.4184H34.7142L35.5 29Z" fill="#EBF0FF"/>
</g>
<defs>
<linearGradient id="paint0_linear_247_29" x1="-129" y1="51.5" x2="99" y2="51.5" gradientUnits="userSpaceOnUse">
<stop stop-color="#EBF0FF"/>
<stop offset="1" stop-color="#EBF0FF"/>
</linearGradient>
<linearGradient id="paint1_linear_247_29" x1="-129" y1="33" x2="99" y2="33" gradientUnits="userSpaceOnUse">
<stop stop-color="#EBF0FF"/>
<stop offset="1" stop-color="#EBF0FF"/>
</linearGradient>
<linearGradient id="paint2_linear_247_29" x1="-129" y1="14.5" x2="99" y2="14.5" gradientUnits="userSpaceOnUse">
<stop stop-color="#EBF0FF"/>
<stop offset="1" stop-color="#EBF0FF"/>
</linearGradient>
<linearGradient id="paint3_linear_247_29" x1="0" y1="18.5" x2="40" y2="18.5" gradientUnits="userSpaceOnUse">
<stop stop-color="#202D4D"/>
<stop offset="1" stop-color="#202D4D"/>
</linearGradient>
<clipPath id="clip0_247_29">
<rect width="66" height="66" fill="white"/>
</clipPath>
</defs>
</svg>
