<svg width="430" height="347" viewBox="0 0 430 347" fill="none" xmlns="http://www.w3.org/2000/svg">
<g clip-path="url(#clip0_252_29)">
<rect width="430" height="347" fill="white"/>
<g clip-path="url(#clip1_252_29)">
<rect width="1620" height="346" transform="translate(-83 1)" fill="white"/>
<rect x="-278" y="284" width="1097" height="63" fill="url(#paint0_linear_252_29)"/>
<rect x="-278" y="234" width="1097" height="64" fill="url(#paint1_linear_252_29)"/>
<rect x="-278" y="185" width="1097" height="63" fill="url(#paint2_linear_252_29)"/>
<rect x="-278" y="135" width="1097" height="64" fill="url(#paint3_linear_252_29)"/>
<rect x="-278" y="86" width="1097" height="63" fill="url(#paint4_linear_252_29)"/>
<rect x="-278" y="36" width="1097" height="64" fill="url(#paint5_linear_252_29)"/>
<rect x="-278" y="1" width="1097" height="49" fill="url(#paint6_linear_252_29)"/>
<rect x="-2" y="1" width="279" height="198" fill="url(#paint7_linear_252_29)"/>
<g filter="url(#filter0_if_252_29)">
<path d="M251 12L253.694 20.2918H262.413L255.359 25.4164L258.053 33.7082L251 28.5836L243.947 33.7082L246.641 25.4164L239.587 20.2918H248.306L251 12Z" fill="white"/>
<path d="M251 48L253.694 56.2918H262.413L255.359 61.4164L258.053 69.7082L251 64.5836L243.947 69.7082L246.641 61.4164L239.587 56.2918H248.306L251 48Z" fill="white"/>
<path d="M251 84L253.694 92.2918H262.413L255.359 97.4164L258.053 105.708L251 100.584L243.947 105.708L246.641 97.4164L239.587 92.2918H248.306L251 84Z" fill="white"/>
<path d="M251 120L253.694 128.292H262.413L255.359 133.416L258.053 141.708L251 136.584L243.947 141.708L246.641 133.416L239.587 128.292H248.306L251 120Z" fill="white"/>
<path d="M251 156L253.694 164.292H262.413L255.359 169.416L258.053 177.708L251 172.584L243.947 177.708L246.641 169.416L239.587 164.292H248.306L251 156Z" fill="white"/>
</g>
<g filter="url(#filter1_if_252_29)">
<path d="M159 12L161.694 20.2918H170.413L163.359 25.4164L166.053 33.7082L159 28.5836L151.947 33.7082L154.641 25.4164L147.587 20.2918H156.306L159 12Z" fill="white"/>
<path d="M159 48L161.694 56.2918H170.413L163.359 61.4164L166.053 69.7082L159 64.5836L151.947 69.7082L154.641 61.4164L147.587 56.2918H156.306L159 48Z" fill="white"/>
<path d="M159 84L161.694 92.2918H170.413L163.359 97.4164L166.053 105.708L159 100.584L151.947 105.708L154.641 97.4164L147.587 92.2918H156.306L159 84Z" fill="white"/>
<path d="M159 120L161.694 128.292H170.413L163.359 133.416L166.053 141.708L159 136.584L151.947 141.708L154.641 133.416L147.587 128.292H156.306L159 120Z" fill="white"/>
<path d="M159 156L161.694 164.292H170.413L163.359 169.416L166.053 177.708L159 172.584L151.947 177.708L154.641 169.416L147.587 164.292H156.306L159 156Z" fill="white"/>
</g>
<g filter="url(#filter2_if_252_29)">
<path d="M68 12L70.6942 20.2918H79.4127L72.3593 25.4164L75.0534 33.7082L68 28.5836L60.9466 33.7082L63.6407 25.4164L56.5873 20.2918H65.3058L68 12Z" fill="white"/>
<path d="M68 48L70.6942 56.2918H79.4127L72.3593 61.4164L75.0534 69.7082L68 64.5836L60.9466 69.7082L63.6407 61.4164L56.5873 56.2918H65.3058L68 48Z" fill="white"/>
<path d="M68 84L70.6942 92.2918H79.4127L72.3593 97.4164L75.0534 105.708L68 100.584L60.9466 105.708L63.6407 97.4164L56.5873 92.2918H65.3058L68 84Z" fill="white"/>
<path d="M68 120L70.6942 128.292H79.4127L72.3593 133.416L75.0534 141.708L68 136.584L60.9466 141.708L63.6407 133.416L56.5873 128.292H65.3058L68 120Z" fill="white"/>
<path d="M68 156L70.6942 164.292H79.4127L72.3593 169.416L75.0534 177.708L68 172.584L60.9466 177.708L63.6407 169.416L56.5873 164.292H65.3058L68 156Z" fill="white"/>
</g>
<g filter="url(#filter3_if_252_29)">
<path d="M205 12L207.694 20.2918H216.413L209.359 25.4164L212.053 33.7082L205 28.5836L197.947 33.7082L200.641 25.4164L193.587 20.2918H202.306L205 12Z" fill="white"/>
<path d="M205 48L207.694 56.2918H216.413L209.359 61.4164L212.053 69.7082L205 64.5836L197.947 69.7082L200.641 61.4164L193.587 56.2918H202.306L205 48Z" fill="white"/>
<path d="M205 84L207.694 92.2918H216.413L209.359 97.4164L212.053 105.708L205 100.584L197.947 105.708L200.641 97.4164L193.587 92.2918H202.306L205 84Z" fill="white"/>
<path d="M205 120L207.694 128.292H216.413L209.359 133.416L212.053 141.708L205 136.584L197.947 141.708L200.641 133.416L193.587 128.292H202.306L205 120Z" fill="white"/>
<path d="M205 156L207.694 164.292H216.413L209.359 169.416L212.053 177.708L205 172.584L197.947 177.708L200.641 169.416L193.587 164.292H202.306L205 156Z" fill="white"/>
</g>
<g filter="url(#filter4_if_252_29)">
<path d="M113 12L115.694 20.2918H124.413L117.359 25.4164L120.053 33.7082L113 28.5836L105.947 33.7082L108.641 25.4164L101.587 20.2918H110.306L113 12Z" fill="white"/>
<path d="M113 48L115.694 56.2918H124.413L117.359 61.4164L120.053 69.7082L113 64.5836L105.947 69.7082L108.641 61.4164L101.587 56.2918H110.306L113 48Z" fill="white"/>
<path d="M113 84L115.694 92.2918H124.413L117.359 97.4164L120.053 105.708L113 100.584L105.947 105.708L108.641 97.4164L101.587 92.2918H110.306L113 84Z" fill="white"/>
<path d="M113 120L115.694 128.292H124.413L117.359 133.416L120.053 141.708L113 136.584L105.947 141.708L108.641 133.416L101.587 128.292H110.306L113 120Z" fill="white"/>
<path d="M113 156L115.694 164.292H124.413L117.359 169.416L120.053 177.708L113 172.584L105.947 177.708L108.641 169.416L101.587 164.292H110.306L113 156Z" fill="white"/>
</g>
<g filter="url(#filter5_if_252_29)">
<path d="M22 12L24.6942 20.2918H33.4127L26.3593 25.4164L29.0534 33.7082L22 28.5836L14.9466 33.7082L17.6407 25.4164L10.5873 20.2918H19.3058L22 12Z" fill="white"/>
<path d="M22 48L24.6942 56.2918H33.4127L26.3593 61.4164L29.0534 69.7082L22 64.5836L14.9466 69.7082L17.6407 61.4164L10.5873 56.2918H19.3058L22 48Z" fill="white"/>
<path d="M22 84L24.6942 92.2918H33.4127L26.3593 97.4164L29.0534 105.708L22 100.584L14.9466 105.708L17.6407 97.4164L10.5873 92.2918H19.3058L22 84Z" fill="white"/>
<path d="M22 120L24.6942 128.292H33.4127L26.3593 133.416L29.0534 141.708L22 136.584L14.9466 141.708L17.6407 133.416L10.5873 128.292H19.3058L22 120Z" fill="white"/>
<path d="M22 156L24.6942 164.292H33.4127L26.3593 169.416L29.0534 177.708L22 172.584L14.9466 177.708L17.6407 169.416L10.5873 164.292H19.3058L22 156Z" fill="white"/>
</g>
</g>
</g>
<defs>
<filter id="filter0_if_252_29" x="231" y="10" width="34" height="181" filterUnits="userSpaceOnUse" color-interpolation-filters="sRGB">
<feFlood flood-opacity="0" result="BackgroundImageFix"/>
<feBlend mode="normal" in="SourceGraphic" in2="BackgroundImageFix" result="shape"/>
<feColorMatrix in="SourceAlpha" type="matrix" values="0 0 0 0 0 0 0 0 0 0 0 0 0 0 0 0 0 0 127 0" result="hardAlpha"/>
<feOffset dy="4"/>
<feGaussianBlur stdDeviation="2"/>
<feComposite in2="hardAlpha" operator="arithmetic" k2="-1" k3="1"/>
<feColorMatrix type="matrix" values="0 0 0 0 0 0 0 0 0 0 0 0 0 0 0 0 0 0 0.15 0"/>
<feBlend mode="normal" in2="shape" result="effect1_innerShadow_252_29"/>
<feGaussianBlur stdDeviation="1" result="effect2_foregroundBlur_252_29"/>
</filter>
<filter id="filter1_if_252_29" x="139" y="10" width="34" height="181" filterUnits="userSpaceOnUse" color-interpolation-filters="sRGB">
<feFlood flood-opacity="0" result="BackgroundImageFix"/>
<feBlend mode="normal" in="SourceGraphic" in2="BackgroundImageFix" result="shape"/>
<feColorMatrix in="SourceAlpha" type="matrix" values="0 0 0 0 0 0 0 0 0 0 0 0 0 0 0 0 0 0 127 0" result="hardAlpha"/>
<feOffset dy="4"/>
<feGaussianBlur stdDeviation="2"/>
<feComposite in2="hardAlpha" operator="arithmetic" k2="-1" k3="1"/>
<feColorMatrix type="matrix" values="0 0 0 0 0 0 0 0 0 0 0 0 0 0 0 0 0 0 0.1 0"/>
<feBlend mode="normal" in2="shape" result="effect1_innerShadow_252_29"/>
<feGaussianBlur stdDeviation="1" result="effect2_foregroundBlur_252_29"/>
</filter>
<filter id="filter2_if_252_29" x="47" y="10" width="35" height="181" filterUnits="userSpaceOnUse" color-interpolation-filters="sRGB">
<feFlood flood-opacity="0" result="BackgroundImageFix"/>
<feBlend mode="normal" in="SourceGraphic" in2="BackgroundImageFix" result="shape"/>
<feColorMatrix in="SourceAlpha" type="matrix" values="0 0 0 0 0 0 0 0 0 0 0 0 0 0 0 0 0 0 127 0" result="hardAlpha"/>
<feOffset dy="4"/>
<feGaussianBlur stdDeviation="2"/>
<feComposite in2="hardAlpha" operator="arithmetic" k2="-1" k3="1"/>
<feColorMatrix type="matrix" values="0 0 0 0 0 0 0 0 0 0 0 0 0 0 0 0 0 0 0.05 0"/>
<feBlend mode="normal" in2="shape" result="effect1_innerShadow_252_29"/>
<feGaussianBlur stdDeviation="1" result="effect2_foregroundBlur_252_29"/>
</filter>
<filter id="filter3_if_252_29" x="185" y="10" width="34" height="181" filterUnits="userSpaceOnUse" color-interpolation-filters="sRGB">
<feFlood flood-opacity="0" result="BackgroundImageFix"/>
<feBlend mode="normal" in="SourceGraphic" in2="BackgroundImageFix" result="shape"/>
<feColorMatrix in="SourceAlpha" type="matrix" values="0 0 0 0 0 0 0 0 0 0 0 0 0 0 0 0 0 0 127 0" result="hardAlpha"/>
<feOffset dy="4"/>
<feGaussianBlur stdDeviation="2"/>
<feComposite in2="hardAlpha" operator="arithmetic" k2="-1" k3="1"/>
<feColorMatrix type="matrix" values="0 0 0 0 0 0 0 0 0 0 0 0 0 0 0 0 0 0 0.1 0"/>
<feBlend mode="normal" in2="shape" result="effect1_innerShadow_252_29"/>
<feGaussianBlur stdDeviation="1" result="effect2_foregroundBlur_252_29"/>
</filter>
<filter id="filter4_if_252_29" x="93" y="10" width="34" height="181" filterUnits="userSpaceOnUse" color-interpolation-filters="sRGB">
<feFlood flood-opacity="0" result="BackgroundImageFix"/>
<feBlend mode="normal" in="SourceGraphic" in2="BackgroundImageFix" result="shape"/>
<feColorMatrix in="SourceAlpha" type="matrix" values="0 0 0 0 0 0 0 0 0 0 0 0 0 0 0 0 0 0 127 0" result="hardAlpha"/>
<feOffset dy="4"/>
<feGaussianBlur stdDeviation="2"/>
<feComposite in2="hardAlpha" operator="arithmetic" k2="-1" k3="1"/>
<feColorMatrix type="matrix" values="0 0 0 0 0 0 0 0 0 0 0 0 0 0 0 0 0 0 0.05 0"/>
<feBlend mode="normal" in2="shape" result="effect1_innerShadow_252_29"/>
<feGaussianBlur stdDeviation="1" result="effect2_foregroundBlur_252_29"/>
</filter>
<filter id="filter5_if_252_29" x="1" y="10" width="35" height="181" filterUnits="userSpaceOnUse" color-interpolation-filters="sRGB">
<feFlood flood-opacity="0" result="BackgroundImageFix"/>
<feBlend mode="normal" in="SourceGraphic" in2="BackgroundImageFix" result="shape"/>
<feColorMatrix in="SourceAlpha" type="matrix" values="0 0 0 0 0 0 0 0 0 0 0 0 0 0 0 0 0 0 127 0" result="hardAlpha"/>
<feOffset dy="4"/>
<feGaussianBlur stdDeviation="2"/>
<feComposite in2="hardAlpha" operator="arithmetic" k2="-1" k3="1"/>
<feColorMatrix type="matrix" values="0 0 0 0 0 0 0 0 0 0 0 0 0 0 0 0 0 0 0.05 0"/>
<feBlend mode="normal" in2="shape" result="effect1_innerShadow_252_29"/>
<feGaussianBlur stdDeviation="1" result="effect2_foregroundBlur_252_29"/>
</filter>
<linearGradient id="paint0_linear_252_29" x1="-278" y1="315.5" x2="819" y2="315.5" gradientUnits="userSpaceOnUse">
<stop offset="0.0939996" stop-color="white"/>
<stop offset="1" stop-color="#DC0000"/>
</linearGradient>
<linearGradient id="paint1_linear_252_29" x1="-278" y1="266" x2="819" y2="266" gradientUnits="userSpaceOnUse">
<stop offset="0.0789996" stop-color="white"/>
<stop offset="1" stop-color="#ECECEC"/>
</linearGradient>
<linearGradient id="paint2_linear_252_29" x1="-278" y1="216.5" x2="819" y2="216.5" gradientUnits="userSpaceOnUse">
<stop offset="0.0939996" stop-color="white"/>
<stop offset="1" stop-color="#DC0000"/>
</linearGradient>
<linearGradient id="paint3_linear_252_29" x1="-278" y1="167" x2="819" y2="167" gradientUnits="userSpaceOnUse">
<stop offset="0.0789996" stop-color="white"/>
<stop offset="1" stop-color="#ECECEC"/>
</linearGradient>
<linearGradient id="paint4_linear_252_29" x1="-278" y1="117.5" x2="819" y2="117.5" gradientUnits="userSpaceOnUse">
<stop offset="0.0939996" stop-color="white"/>
<stop offset="1" stop-color="#DC0000"/>
</linearGradient>
<linearGradient id="paint5_linear_252_29" x1="-278" y1="68" x2="819" y2="68" gradientUnits="userSpaceOnUse">
<stop offset="0.0789996" stop-color="white"/>
<stop offset="1" stop-color="#ECECEC"/>
</linearGradient>
<linearGradient id="paint6_linear_252_29" x1="-278" y1="25.5" x2="819" y2="25.5" gradientUnits="userSpaceOnUse">
<stop offset="0.0939996" stop-color="white"/>
<stop offset="1" stop-color="#DC0000"/>
</linearGradient>
<linearGradient id="paint7_linear_252_29" x1="-2" y1="100" x2="277" y2="100" gradientUnits="userSpaceOnUse">
<stop stop-color="#FFFEFE"/>
<stop offset="1" stop-color="#56668B"/>
</linearGradient>
<clipPath id="clip0_252_29">
<rect width="430" height="347" fill="white"/>
</clipPath>
<clipPath id="clip1_252_29">
<rect width="1620" height="346" fill="white" transform="translate(-83 1)"/>
</clipPath>
</defs>
</svg>
